<svg version="1.1" preserveAspectRatio="none" xmlns="http://www.w3.org/2000/svg" width="500" height="500" viewBox="0 0 500 500"><rect width="100%" height="100%" fill="#000000" fill-opacity="1"/><svg viewBox="38.0246 118.3133 373.0553 361.6402" width="333" height="322.81055007126287" x="83.5px" y="88.5947px" xmlns="http://www.w3.org/2000/svg" xmlns:xlink="http://www.w3.org/1999/xlink" preserveAspectRatio="none"><defs></defs><style>.aa2O-D20rgJ0filter-floo {flood-color:#F539BD;flood-opacity:1;}.aHsFB6mEE6colors-1 {fill:#F539B3;fill-opacity:1;}.aHsFB6mEE6colors-2 {fill:#F539BD;fill-opacity:1;}.ai0NrGVRvc0filter-floo {flood-color:#F3F3F3;flood-opacity:0.91;}.aRWrrEA-PR0filter-floo {flood-color:#E9B0D6;flood-opacity:0.5;}.atUk6sjh6M0filter-floo {flood-color:#FFC7C7;flood-opacity:0.89;}.companyName {fill:#FBE1EF;fill-opacity:1;}.icon2 {fill:#F539B3;fill-opacity:1;}.icon3 {fill:#F539BD;fill-opacity:1;}.icon3-str {stroke:#F539BD;stroke-opacity:1;}.shape-floo {flood-color:#2525CE;flood-opacity:1;}.text {fill:#F3F3F3;fill-opacity:1;}</style><defs>
      <filter
        x="38.0246"
        y="257.9535"
        width="373.0553"
        height="222"
        id="ikYEXSHZT"
        filterUnits="userSpaceOnUse"
        primitiveUnits="userSpaceOnUse"
        color-interpolation-filters="sRGB">
        
    <feGaussianBlur in="SourceGraphic" stdDeviation="7"/>
    <feOffset dx="2.4630255792620215" dy="2.4630255792620215" result="d8JK6n81CWF"/>
    <feFlood flood-color="#2525CE" flood-opacity="1" in="d8JK6n81CWF" />
    <feComposite  in2="d8JK6n81CWF" operator="in" result="vj-FYv9VLDo"/><feMerge result="z4DHfSuJd9Y"><feMergeNode in="vj-FYv9VLDo" /><feMergeNode in="SourceGraphic" /></feMerge><feGaussianBlur  result="k22bs77fwhe" stdDeviation="10" />
      </filter>
      <filter
        x="74.5545"
        y="294.4905"
        width="295.0696"
        height="144"
        id="tUk6sjh6M"
        filterUnits="userSpaceOnUse"
        primitiveUnits="userSpaceOnUse"
        color-interpolation-filters="sRGB">
        
    <feGaussianBlur in="SourceGraphic" stdDeviation="4"/>
    <feOffset dx="0" dy="0" result="cxfe-9tK5Tj"/>
    <feFlood flood-color="#FFC7C7" flood-opacity="0.89" in="cxfe-9tK5Tj" />
    <feComposite  in2="cxfe-9tK5Tj" operator="in" result="V8-Nf9cd9lf"/><feMerge result="Zrdr2vt2e2s"><feMergeNode in="V8-Nf9cd9lf" /><feMergeNode in="SourceGraphic" /></feMerge>
      </filter>
      <filter
        x="108.293"
        y="118.3133"
        width="233.2382"
        height="222"
        id="a2O-D20rgJ"
        filterUnits="userSpaceOnUse"
        primitiveUnits="userSpaceOnUse"
        color-interpolation-filters="sRGB">
        
    <feGaussianBlur in="SourceGraphic" stdDeviation="7"/>
    <feOffset dx="2.8228399746132595" dy="2.8228399746132595" result="AGdJbtaCT9H"/>
    <feFlood flood-color="#F539BD" flood-opacity="1" in="AGdJbtaCT9H" />
    <feComposite  in2="AGdJbtaCT9H" operator="in" result="a2g4CNtugaW-"/><feMerge result="amzU-fxnMmo"><feMergeNode in="a2g4CNtugaW-" /><feMergeNode in="SourceGraphic" /></feMerge><feGaussianBlur  result="Q3FO0ZfSlEu" stdDeviation="10" />
      </filter>
      <filter
        x="144.4702"
        y="154.4905"
        width="155.2382"
        height="144"
        id="i0NrGVRvc"
        filterUnits="userSpaceOnUse"
        primitiveUnits="userSpaceOnUse"
        color-interpolation-filters="sRGB">
        
    <feGaussianBlur in="SourceGraphic" stdDeviation="4"/>
    <feOffset dx="0" dy="0" result="a8iCnHm6JzxN"/>
    <feFlood flood-color="#F3F3F3" flood-opacity="0.91" in="a8iCnHm6JzxN" />
    <feComposite  in2="a8iCnHm6JzxN" operator="in" result="a4u8vHYaeC7U"/><feMerge result="oTV7uchOEPL"><feMergeNode in="a4u8vHYaeC7U" /><feMergeNode in="SourceGraphic" /></feMerge>
      </filter></defs><g opacity="1" transform="rotate(0 111.0716 454.4905)">
<svg width="222.0354" height="19.2" x="111.0716" y="454.4905" version="1.1" preserveAspectRatio="none" viewBox="0.36 -28 415.35999999999996 35.92">
  <g transform="matrix(1 0 0 1 0 0)" class="text"><path id="id-6izo4zJp17" d="M19.16-22.24L12 0L8.60 0L0.36-26.48L3.52-26.48L10.32-4.24L17.44-26.48L20.88-26.48L28-4.24L34.80-26.48L37.96-26.48L29.72 0L26.32 0L19.16-22.24Z M52.52-2.40L52.52-2.40Q56.56-2.40 58.32-5.76L58.32-5.76L61.60-5.76Q60.56-3.04 58.30-1.36Q56.04 0.32 52.48 0.32L52.48 0.32Q47.96 0.32 45.12-2.68L45.12-2.68Q42.36-5.60 42.36-10L42.36-10Q42.36-14.44 45-17.32L45-17.32Q47.80-20.32 52.28-20.32L52.28-20.32Q56.76-20.32 59.56-17.32L59.56-17.32Q62.20-14.44 62.20-10L62.20-10L62.20-8.80L45.44-8.80Q45.76-6.04 47.64-4.24L47.64-4.24Q49.56-2.40 52.52-2.40ZM52.28-17.60L52.28-17.60Q49.52-17.60 47.64-15.88L47.64-15.88Q45.88-14.24 45.48-11.60L45.48-11.60L59.08-11.60Q58.68-14.24 56.92-15.88L56.92-15.88Q55.04-17.60 52.28-17.60Z M94.84-2.60L94.84-2.60Q97.68-2.60 99.82-4.04Q101.96-5.48 103-7.92L103-7.92L106.16-7.92Q104.84-4.16 101.80-2L101.80-2Q98.56 0.32 94.16 0.32L94.16 0.32Q88.36 0.32 84.76-3.64L84.76-3.64Q81.36-7.44 81.36-13.24Q81.36-19.04 84.76-22.84L84.76-22.84Q88.36-26.80 94.16-26.80L94.16-26.80Q98.56-26.80 101.80-24.48L101.80-24.48Q104.84-22.32 106.16-18.56L106.16-18.56L103-18.56Q101.96-21 99.82-22.44Q97.68-23.88 94.84-23.88Q92-23.88 90.12-23.06Q88.24-22.24 86.96-20.80L86.96-20.80Q84.36-17.88 84.36-13.24L84.36-13.24Q84.36-8.60 86.96-5.68L86.96-5.68Q89.68-2.60 94.84-2.60Z M122.68-20.32L122.68-20.32Q127.16-20.32 129.96-17.32L129.96-17.32Q132.60-14.44 132.60-10L132.60-10Q132.60-5.56 129.96-2.68L129.96-2.68Q127.16 0.32 122.68 0.32L122.68 0.32Q118.20 0.32 115.40-2.68L115.40-2.68Q112.76-5.56 112.76-10L112.76-10Q112.76-14.44 115.40-17.32L115.40-17.32Q118.20-20.32 122.68-20.32ZM122.68-2.40L122.68-2.40Q125.92-2.40 127.80-4.64L127.80-4.64Q129.60-6.76 129.60-10L129.60-10Q129.60-13.24 127.80-15.36L127.80-15.36Q125.92-17.60 122.68-17.60L122.68-17.60Q119.44-17.60 117.56-15.36L117.56-15.36Q115.76-13.24 115.76-10L115.76-10Q115.76-6.76 117.56-4.64L117.56-4.64Q119.44-2.40 122.68-2.40Z M140.56-20L143.56-20L143.56-16.88Q144.64-18.32 146.20-19.32Q147.76-20.32 149.76-20.32Q151.76-20.32 153.20-19.76Q154.64-19.20 155.72-18.08L155.72-18.08Q158.20-15.64 158.20-11.64L158.20-11.64L158.20 0L155.20 0L155.20-11.56Q155.20-14.32 153.64-15.96Q152.08-17.60 149.60-17.60L149.60-17.60Q147.08-17.60 145.32-15.92L145.32-15.92Q143.56-14.20 143.56-11.52L143.56-11.52L143.56 0L140.56 0L140.56-20Z M167.20-20L170.20-20L170.20-16.88Q171.28-18.32 172.84-19.32Q174.40-20.32 176.40-20.32Q178.40-20.32 179.84-19.76Q181.28-19.20 182.36-18.08L182.36-18.08Q184.84-15.64 184.84-11.64L184.84-11.64L184.84 0L181.84 0L181.84-11.56Q181.84-14.32 180.28-15.96Q178.72-17.60 176.24-17.60L176.24-17.60Q173.72-17.60 171.96-15.92L171.96-15.92Q170.20-14.20 170.20-11.52L170.20-11.52L170.20 0L167.20 0L167.20-20Z M202.76-2.40L202.76-2.40Q206.80-2.40 208.56-5.76L208.56-5.76L211.84-5.76Q210.80-3.04 208.54-1.36Q206.28 0.32 202.72 0.32L202.72 0.32Q198.20 0.32 195.36-2.68L195.36-2.68Q192.60-5.60 192.60-10L192.60-10Q192.60-14.44 195.24-17.32L195.24-17.32Q198.04-20.32 202.52-20.32L202.52-20.32Q207-20.32 209.80-17.32L209.80-17.32Q212.44-14.44 212.44-10L212.44-10L212.44-8.80L195.68-8.80Q196-6.04 197.88-4.24L197.88-4.24Q199.80-2.40 202.76-2.40ZM202.52-17.60L202.52-17.60Q199.76-17.60 197.88-15.88L197.88-15.88Q196.12-14.24 195.72-11.60L195.72-11.60L209.32-11.60Q208.92-14.24 207.16-15.88L207.16-15.88Q205.28-17.60 202.52-17.60Z M229.36-2.40L229.36-2.40Q231.28-2.40 232.76-3.48Q234.24-4.56 234.92-6.28L234.92-6.28L238.16-6.28Q237.24-3.32 234.80-1.52L234.80-1.52Q232.24 0.32 228.72 0.32L228.72 0.32Q224.32 0.32 221.56-2.68L221.56-2.68Q218.88-5.60 218.88-10L218.88-10Q218.88-14.40 221.56-17.32L221.56-17.32Q224.32-20.32 228.72-20.32L228.72-20.32Q232.24-20.32 234.80-18.48L234.80-18.48Q237.24-16.68 238.16-13.72L238.16-13.72L234.92-13.72Q234.24-15.44 232.76-16.52Q231.28-17.60 229.36-17.60Q227.44-17.60 226.10-17Q224.76-16.40 223.84-15.36L223.84-15.36Q221.88-13.20 221.88-10L221.88-10Q221.88-6.80 223.84-4.64L223.84-4.64Q225.84-2.40 229.36-2.40Z M251.04 0L248.04 0L248.04-17.36L243.96-17.36L243.96-20L248.04-20L248.04-27.16L251.04-27.16L251.04-20L255.64-20L255.64-17.36L251.04-17.36L251.04 0Z M279.08-9.44L279.08 0L276.08 0L276.08-26.48L288-26.48Q292.20-26.48 294.68-24.16L294.68-24.16Q297.12-21.84 297.12-17.96L297.12-17.96Q297.12-14.04 294.66-11.74Q292.20-9.44 288-9.44L288-9.44L279.08-9.44ZM287.80-23.64L279.08-23.64L279.08-12.24L287.80-12.24Q290.92-12.24 292.52-13.76Q294.12-15.28 294.12-17.94Q294.12-20.60 292.52-22.12Q290.92-23.64 287.80-23.64L287.80-23.64Z M313.24-2.40L313.24-2.40Q317.28-2.40 319.04-5.76L319.04-5.76L322.32-5.76Q321.28-3.04 319.02-1.36Q316.76 0.32 313.20 0.32L313.20 0.32Q308.68 0.32 305.84-2.68L305.84-2.68Q303.08-5.60 303.08-10L303.08-10Q303.08-14.44 305.72-17.32L305.72-17.32Q308.52-20.32 313.00-20.32L313.00-20.32Q317.48-20.32 320.28-17.32L320.28-17.32Q322.92-14.44 322.92-10L322.92-10L322.92-8.80L306.16-8.80Q306.48-6.04 308.36-4.24L308.36-4.24Q310.28-2.40 313.24-2.40ZM313.00-17.60L313.00-17.60Q310.24-17.60 308.36-15.88L308.36-15.88Q306.60-14.24 306.20-11.60L306.20-11.60L319.80-11.60Q319.40-14.24 317.64-15.88L317.64-15.88Q315.76-17.60 313.00-17.60Z M339.28-20.32L339.28-20.32Q343.76-20.32 346.56-17.32L346.56-17.32Q349.20-14.44 349.20-10L349.20-10Q349.20-5.56 346.56-2.68L346.56-2.68Q343.76 0.32 339.28 0.32L339.28 0.32Q334.80 0.32 332-2.68L332-2.68Q329.36-5.56 329.36-10L329.36-10Q329.36-14.44 332-17.32L332-17.32Q334.80-20.32 339.28-20.32ZM339.28-2.40L339.28-2.40Q342.52-2.40 344.40-4.64L344.40-4.64Q346.20-6.76 346.20-10L346.20-10Q346.20-13.24 344.40-15.36L344.40-15.36Q342.52-17.60 339.28-17.60L339.28-17.60Q336.04-17.60 334.16-15.36L334.16-15.36Q332.36-13.24 332.36-10L332.36-10Q332.36-6.76 334.16-4.64L334.16-4.64Q336.04-2.40 339.28-2.40Z M360.16-20L360.16-16.80Q362.56-20.32 367.32-20.32L367.32-20.32Q371.64-20.32 374.32-17.32L374.32-17.32Q377-14.36 377-10L377-10Q377-5.64 374.32-2.68L374.32-2.68Q371.64 0.32 367.12 0.32Q362.60 0.32 360.16-3.24L360.16-3.24L360.16 7.92L357.16 7.92L357.16-20L360.16-20ZM366.92-17.60L366.92-17.60Q363.68-17.60 361.80-15.36L361.80-15.36Q360-13.24 360-10L360-10Q360-6.76 361.80-4.64L361.80-4.64Q363.68-2.40 366.92-2.40L366.92-2.40Q370.12-2.40 372.12-4.64L372.12-4.64Q374-6.76 374-10L374-10Q374-13.24 372.12-15.36L372.12-15.36Q370.12-17.60 366.92-17.60Z M387.92-28L387.92 0L384.92 0L384.92-28L387.92-28Z M406.04-2.40L406.04-2.40Q410.08-2.40 411.84-5.76L411.84-5.76L415.12-5.76Q414.08-3.04 411.82-1.36Q409.56 0.32 406 0.32L406 0.32Q401.48 0.32 398.64-2.68L398.64-2.68Q395.88-5.60 395.88-10L395.88-10Q395.88-14.44 398.52-17.32L398.52-17.32Q401.32-20.32 405.80-20.32L405.80-20.32Q410.28-20.32 413.08-17.32L413.08-17.32Q415.72-14.44 415.72-10L415.72-10L415.72-8.80L398.96-8.80Q399.28-6.04 401.16-4.24L401.16-4.24Q403.08-2.40 406.04-2.40ZM405.80-17.60L405.80-17.60Q403.04-17.60 401.16-15.88L401.16-15.88Q399.40-14.24 399-11.60L399-11.60L412.60-11.60Q412.20-14.24 410.44-15.88L410.44-15.88Q408.56-17.60 405.80-17.60Z"/></g>
</svg>
</g><g filter="url(#ikYEXSHZT)"><g opacity="1" transform="rotate(0 86.5616 306.4905)">
<svg width="271.0553" height="120" x="86.5616" y="306.4905" version="1.1" preserveAspectRatio="none" viewBox="1.9531 -29.2969 109.10159999999999 48.300799999999995">
  <g transform="matrix(1 0 0 1 0 0)" class="icon3"><path id="id-BEGfasMba7" d="M35.43-20.51L35.43-20.51Q35.37-20.23 35.18-20.08Q34.98-19.92 34.75-19.92L34.75-19.92Q34.39-19.92 34.18-20.15Q33.96-20.37 33.96-20.66L33.96-20.66Q33.96-20.96 34.02-21.24Q34.08-21.52 34.08-21.80L34.08-21.80Q34.08-23.22 33.20-24.36Q32.32-25.49 30.71-26.26Q29.10-27.03 26.80-27.44Q24.49-27.85 21.66-27.85L21.66-27.85Q19.49-27.85 17.29-27.57Q15.10-27.29 13.08-26.75Q11.05-26.21 9.30-25.40Q7.54-24.59 6.24-23.53Q4.94-22.46 4.20-21.16Q3.46-19.86 3.46-18.32L3.46-18.32Q3.46-17.13 3.97-16.22Q4.49-15.31 5.39-14.64Q6.29-13.96 7.51-13.49Q8.73-13.01 10.16-12.69Q11.58-12.36 13.13-12.16Q14.67-11.95 16.23-11.82L16.23-11.82L19.24-11.56Q21.48-11.37 23.26-11.15Q25.04-10.94 26.39-10.61L26.39-10.61Q28.63-10.04 29.71-8.98Q30.78-7.93 30.78-6.17L30.78-6.17Q30.78-4.47 29.84-3.18Q28.91-1.89 27.29-1.02Q25.66-0.14 23.50 0.31Q21.33 0.76 18.85 0.76L18.85 0.76Q16.15 0.76 14.11 0.40Q12.07 0.04 10.69-0.40Q9.32-0.84 8.59-1.21Q7.87-1.58 7.81-1.62L7.81-1.62Q7.46-1.82 7.46-2.25L7.46-2.25Q7.46-2.58 7.70-2.78Q7.93-2.99 8.20-2.99L8.20-2.99Q8.42-2.99 8.59-2.87L8.59-2.87Q8.61-2.87 9.27-2.53Q9.92-2.19 11.22-1.78Q12.52-1.37 14.43-1.04Q16.35-0.70 18.89-0.70L18.89-0.70Q21.41-0.70 23.34-1.11Q25.27-1.52 26.59-2.26Q27.91-2.99 28.58-3.97Q29.26-4.96 29.26-6.11L29.26-6.11Q29.26-6.80 29.01-7.29Q28.77-7.79 28.34-8.15Q27.91-8.52 27.31-8.77Q26.72-9.02 26.02-9.20L26.02-9.20Q25.27-9.39 24.42-9.53Q23.57-9.67 22.68-9.77Q21.78-9.86 20.87-9.94Q19.96-10.02 19.08-10.10L19.08-10.10L16.07-10.35Q12.52-10.64 9.87-11.26Q7.23-11.88 5.47-12.84Q3.71-13.81 2.83-15.16Q1.95-16.50 1.95-18.30L1.95-18.30Q1.95-20.14 2.78-21.67Q3.61-23.20 5.05-24.43Q6.48-25.66 8.41-26.57Q10.33-27.48 12.52-28.09Q14.71-28.69 17.05-28.99Q19.39-29.30 21.66-29.30L21.66-29.30Q24.49-29.30 26.59-28.96Q28.69-28.61 30.19-28.08Q31.68-27.54 32.64-26.86Q33.59-26.17 34.18-25.51L34.18-25.51Q35.57-23.89 35.57-21.82L35.57-21.82Q35.57-21.13 35.43-20.51Z M42.58-2.15L42.58-2.15Q42.09-2.15 41.72-2.23L41.72-2.23Q41.43-1.64 41.02-1.14Q40.61-0.64 40.07-0.27Q39.53 0.10 38.87 0.31Q38.20 0.53 37.42 0.53L37.42 0.53Q36.50 0.53 35.74 0.21Q34.98-0.12 34.41-0.69Q33.85-1.27 33.54-2.08Q33.22-2.89 33.22-3.87L33.22-3.87Q33.22-5.12 33.67-6.04Q34.12-6.97 34.71-7.59Q35.29-8.20 35.88-8.51Q36.46-8.81 36.76-8.81L36.76-8.81Q37.09-8.81 37.26-8.63Q37.42-8.46 37.42-8.16L37.42-8.16Q37.42-7.83 37.22-7.67Q37.01-7.50 36.70-7.34L36.70-7.34Q36.39-7.19 36.04-6.90Q35.68-6.62 35.38-6.19Q35.08-5.76 34.88-5.18Q34.69-4.59 34.69-3.87L34.69-3.87Q34.69-3.22 34.88-2.67Q35.08-2.11 35.45-1.71Q35.82-1.31 36.33-1.08Q36.84-0.86 37.46-0.86L37.46-0.86Q38.57-0.86 39.31-1.38Q40.04-1.89 40.43-2.70L40.43-2.70Q39.28-3.30 38.54-4.41Q37.79-5.53 37.79-6.91L37.79-6.91Q37.79-8.03 38.33-8.73Q38.87-9.43 39.75-9.43L39.75-9.43Q40.27-9.43 40.74-9.18Q41.21-8.93 41.57-8.38Q41.93-7.83 42.15-6.97Q42.36-6.11 42.36-4.92L42.36-4.92Q42.36-4.30 42.21-3.61L42.21-3.61Q42.32-3.59 42.44-3.59Q42.56-3.59 42.70-3.59L42.70-3.59Q43.36-3.59 43.89-3.75Q44.41-3.91 44.84-4.22Q45.27-4.53 45.62-5.02Q45.96-5.51 46.27-6.15L46.27-6.15Q46.33-6.27 46.52-6.38Q46.72-6.48 46.91-6.48L46.91-6.48Q47.17-6.48 47.39-6.28Q47.62-6.07 47.62-5.74L47.62-5.74Q47.62-5.59 47.54-5.40Q47.46-5.21 47.38-5.06L47.38-5.06Q47.05-4.47 46.61-3.94Q46.17-3.40 45.58-3.00Q44.98-2.60 44.24-2.36Q43.50-2.13 42.58-2.15ZM39.24-7.07L39.24-7.07Q39.24-6.70 39.34-6.29Q39.43-5.88 39.64-5.48Q39.84-5.08 40.15-4.72Q40.45-4.36 40.86-4.10L40.86-4.10Q40.92-4.51 40.92-4.90L40.92-4.90Q40.92-5.43 40.84-5.98Q40.76-6.52 40.62-6.98Q40.47-7.44 40.25-7.72Q40.04-8.01 39.75-8.01L39.75-8.01Q39.63-8.01 39.43-7.83Q39.24-7.66 39.24-7.07Z M58.98-5.41L58.98-5.41Q58.87-5.20 58.58-4.63Q58.30-4.06 57.82-3.35Q57.34-2.64 56.68-1.88Q56.02-1.11 55.16-0.48Q54.30 0.16 53.23 0.57Q52.17 0.98 50.92 0.98L50.92 0.98Q49.80 0.98 48.95 0.58Q48.09 0.18 47.48-0.56Q46.88-1.29 46.56-2.29Q46.25-3.28 46.25-4.49L46.25-4.49Q46.25-5.66 46.58-6.69Q46.91-7.71 47.49-8.48Q48.07-9.24 48.83-9.68Q49.59-10.12 50.45-10.12L50.45-10.12Q51.09-10.12 51.62-9.89Q52.15-9.67 52.51-9.30Q52.87-8.93 53.08-8.48Q53.28-8.03 53.28-7.58L53.28-7.58Q53.28-7.15 53.17-6.78Q53.07-6.41 52.90-6.12Q52.73-5.84 52.52-5.67Q52.30-5.51 52.09-5.51L52.09-5.51Q51.76-5.51 51.55-5.72Q51.35-5.94 51.35-6.25L51.35-6.25Q51.35-6.41 51.42-6.52Q51.48-6.64 51.57-6.77Q51.66-6.89 51.73-7.08Q51.80-7.27 51.80-7.56L51.80-7.56Q51.80-7.97 51.42-8.30Q51.04-8.63 50.45-8.63L50.45-8.63Q49.90-8.63 49.40-8.30Q48.91-7.97 48.54-7.41Q48.16-6.86 47.94-6.10Q47.71-5.35 47.71-4.51L47.71-4.51Q47.71-3.71 47.91-2.99Q48.11-2.27 48.50-1.71Q48.89-1.15 49.48-0.82Q50.08-0.49 50.90-0.49L50.90-0.49Q51.95-0.49 52.85-0.87Q53.75-1.25 54.49-1.84Q55.23-2.42 55.80-3.12Q56.37-3.81 56.77-4.42Q57.17-5.04 57.39-5.50Q57.62-5.96 57.66-6.07L57.66-6.07Q57.73-6.27 57.92-6.38Q58.11-6.48 58.32-6.48L58.32-6.48Q58.65-6.48 58.86-6.25Q59.06-6.02 59.06-5.72L59.06-5.72Q59.06-5.61 58.98-5.41Z M60.84-15.33L60.84-15.33Q60.84-14.59 60.32-14.07Q59.80-13.55 59.06-13.55L59.06-13.55Q58.32-13.55 57.80-14.07Q57.29-14.59 57.29-15.33L57.29-15.33Q57.29-15.70 57.42-16.03Q57.56-16.35 57.80-16.59Q58.05-16.84 58.37-16.97Q58.69-17.11 59.06-17.11L59.06-17.11Q59.43-17.11 59.76-16.97Q60.08-16.84 60.32-16.59Q60.57-16.35 60.70-16.03Q60.84-15.70 60.84-15.33ZM57.68-3.89L57.68-3.89Q57.68-6.70 58.03-9.49L58.03-9.49Q58.07-9.77 58.27-9.97Q58.48-10.18 58.81-10.18L58.81-10.18Q59.10-10.18 59.30-9.95Q59.49-9.73 59.49-9.43L59.49-9.43Q59.49-9.32 59.44-8.73Q59.39-8.14 59.33-7.33Q59.26-6.52 59.21-5.62Q59.16-4.71 59.16-3.95L59.16-3.95Q59.16-2.91 59.37-2.28Q59.57-1.64 59.89-1.29Q60.21-0.94 60.58-0.82Q60.94-0.70 61.27-0.70L61.27-0.70Q61.82-0.70 62.40-1.09Q62.99-1.48 63.60-2.19Q64.22-2.89 64.84-3.88Q65.47-4.86 66.07-6.07L66.07-6.07Q66.17-6.27 66.35-6.38Q66.52-6.48 66.74-6.48L66.74-6.48Q67.05-6.48 67.26-6.25Q67.46-6.02 67.46-5.74L67.46-5.74Q67.46-5.55 67.38-5.41L67.38-5.41Q67.15-4.96 66.80-4.32Q66.45-3.67 66.00-2.99Q65.55-2.30 65.01-1.63Q64.47-0.96 63.87-0.42Q63.26 0.12 62.60 0.45Q61.93 0.78 61.25 0.78L61.25 0.78Q60.37 0.78 59.71 0.41Q59.04 0.04 58.58-0.59Q58.13-1.21 57.90-2.06Q57.68-2.91 57.68-3.89ZM59.75-15.33L59.75-15.33Q59.75-15.61 59.54-15.81Q59.34-16.02 59.06-16.02L59.06-16.02Q58.79-16.02 58.59-15.81Q58.40-15.61 58.40-15.33L58.40-15.33Q58.40-15.06 58.59-14.86Q58.79-14.67 59.06-14.67L59.06-14.67Q59.34-14.67 59.54-14.86Q59.75-15.06 59.75-15.33Z M75.06-2.15L75.06-2.15Q74.57-2.15 74.20-2.23L74.20-2.23Q73.91-1.64 73.50-1.14Q73.09-0.64 72.55-0.27Q72.01 0.10 71.35 0.31Q70.68 0.53 69.90 0.53L69.90 0.53Q68.98 0.53 68.22 0.21Q67.46-0.12 66.89-0.69Q66.33-1.27 66.02-2.08Q65.70-2.89 65.70-3.87L65.70-3.87Q65.70-5.12 66.15-6.04Q66.60-6.97 67.19-7.59Q67.77-8.20 68.36-8.51Q68.95-8.81 69.24-8.81L69.24-8.81Q69.57-8.81 69.74-8.63Q69.90-8.46 69.90-8.16L69.90-8.16Q69.90-7.83 69.70-7.67Q69.49-7.50 69.18-7.34L69.18-7.34Q68.87-7.19 68.52-6.90Q68.16-6.62 67.86-6.19Q67.56-5.76 67.36-5.18Q67.17-4.59 67.17-3.87L67.17-3.87Q67.17-3.22 67.36-2.67Q67.56-2.11 67.93-1.71Q68.30-1.31 68.81-1.08Q69.32-0.86 69.94-0.86L69.94-0.86Q71.05-0.86 71.79-1.38Q72.52-1.89 72.91-2.70L72.91-2.70Q71.76-3.30 71.02-4.41Q70.27-5.53 70.27-6.91L70.27-6.91Q70.27-8.03 70.81-8.73Q71.35-9.43 72.23-9.43L72.23-9.43Q72.75-9.43 73.22-9.18Q73.69-8.93 74.05-8.38Q74.41-7.83 74.63-6.97Q74.84-6.11 74.84-4.92L74.84-4.92Q74.84-4.30 74.69-3.61L74.69-3.61Q74.80-3.59 74.92-3.59Q75.04-3.59 75.18-3.59L75.18-3.59Q75.84-3.59 76.37-3.75Q76.89-3.91 77.32-4.22Q77.75-4.53 78.10-5.02Q78.44-5.51 78.75-6.15L78.75-6.15Q78.81-6.27 79.00-6.38Q79.20-6.48 79.39-6.48L79.39-6.48Q79.65-6.48 79.87-6.28Q80.10-6.07 80.10-5.74L80.10-5.74Q80.10-5.59 80.02-5.40Q79.94-5.21 79.86-5.06L79.86-5.06Q79.53-4.47 79.09-3.94Q78.65-3.40 78.06-3.00Q77.46-2.60 76.72-2.36Q75.98-2.13 75.06-2.15ZM71.72-7.07L71.72-7.07Q71.72-6.70 71.82-6.29Q71.91-5.88 72.12-5.48Q72.32-5.08 72.63-4.72Q72.93-4.36 73.34-4.10L73.34-4.10Q73.40-4.51 73.40-4.90L73.40-4.90Q73.40-5.43 73.32-5.98Q73.24-6.52 73.10-6.98Q72.95-7.44 72.73-7.72Q72.52-8.01 72.23-8.01L72.23-8.01Q72.11-8.01 71.91-7.83Q71.72-7.66 71.72-7.07Z M98.69-5.41L98.69-5.41Q98.48-4.96 98.15-4.35Q97.83-3.73 97.42-3.07Q97.01-2.40 96.50-1.75Q96.00-1.09 95.40-0.58Q94.80-0.06 94.13 0.26Q93.46 0.59 92.70 0.59L92.70 0.59Q91.86 0.59 91.18 0.21Q90.51-0.18 89.98-0.85Q89.45-1.52 89.06-2.43Q88.67-3.34 88.38-4.38L88.38-4.38Q87.91-3.52 87.24-2.64Q86.56-1.76 85.67-0.92Q84.79-0.08 83.64 0.70Q82.50 1.48 81.09 2.13L81.09 2.13Q82.15 3.22 82.93 4.56Q83.71 5.90 84.23 7.34Q84.75 8.79 85.01 10.26Q85.27 11.74 85.27 13.09L85.27 13.09Q85.27 14.32 85.05 15.40Q84.82 16.48 84.38 17.29Q83.95 18.09 83.32 18.54Q82.70 19.00 81.89 19.00L81.89 19.00Q80.72 19.00 80.08 18.13Q79.43 17.27 79.13 15.73Q78.83 14.20 78.78 12.12Q78.73 10.04 78.73 7.60L78.73 7.60Q78.73 6.39 78.73 4.78Q78.73 3.16 78.74 1.32Q78.75-0.53 78.76-2.55Q78.77-4.57 78.79-6.60Q78.81-8.63 78.83-10.60Q78.85-12.56 78.89-14.32L78.89-14.32Q78.95-17.68 79.12-20.31Q79.30-22.95 79.69-24.77Q80.08-26.58 80.75-27.53Q81.43-28.48 82.46-28.48L82.46-28.48Q83.28-28.48 83.85-28.02Q84.41-27.56 84.77-26.79Q85.12-26.02 85.27-24.98Q85.43-23.95 85.43-22.81L85.43-22.81Q85.43-20.43 85.02-18.20Q84.61-15.98 83.91-13.89Q83.20-11.80 82.26-9.80Q81.31-7.81 80.23-5.88L80.23-5.88Q80.23-5.08 80.23-4.15Q80.23-3.22 80.23-2.29Q80.23-1.37 80.22-0.52Q80.21 0.33 80.21 0.96L80.21 0.96Q81.66 0.31 82.84-0.53Q84.02-1.37 84.95-2.29Q85.88-3.22 86.53-4.19Q87.19-5.16 87.58-6.04L87.58-6.04Q87.70-6.29 87.95-6.41L87.95-6.41Q87.62-8.28 87.52-10.13Q87.42-11.97 87.42-13.36L87.42-13.36Q87.42-15 87.53-16.76Q87.64-18.52 87.87-20.20Q88.11-21.88 88.47-23.38Q88.83-24.88 89.33-26.02Q89.82-27.15 90.47-27.81Q91.11-28.48 91.93-28.48L91.93-28.48Q92.58-28.48 93.10-28.17Q93.61-27.87 93.96-27.19Q94.32-26.50 94.51-25.41Q94.71-24.32 94.71-22.73L94.71-22.73Q94.71-20.78 94.30-18.70Q93.89-16.62 93.18-14.51Q92.48-12.40 91.52-10.30Q90.57-8.20 89.47-6.21L89.47-6.21Q89.96-3.73 90.78-2.31Q91.60-0.90 92.75-0.90L92.75-0.90Q93.54-0.90 94.26-1.51Q94.98-2.13 95.59-2.97Q96.19-3.81 96.65-4.68Q97.11-5.55 97.36-6.07L97.36-6.07Q97.46-6.27 97.64-6.38Q97.81-6.48 98.03-6.48L98.03-6.48Q98.36-6.48 98.56-6.25Q98.77-6.02 98.77-5.72L98.77-5.72Q98.77-5.61 98.69-5.41ZM88.91-13.26L88.91-13.26Q88.91-12.01 88.96-10.86Q89.02-9.71 89.12-8.65L89.12-8.65Q89.94-10.23 90.68-12.02Q91.43-13.81 91.99-15.63Q92.56-17.46 92.90-19.27Q93.24-21.07 93.24-22.71L93.24-22.71Q93.24-25.02 92.87-26.02Q92.50-27.01 91.88-27.01L91.88-27.01Q91.46-27.01 91.08-26.45Q90.70-25.88 90.37-24.90Q90.04-23.93 89.77-22.60Q89.49-21.27 89.31-19.75Q89.12-18.22 89.01-16.56Q88.91-14.90 88.91-13.26ZM80.27-8.89L80.27-8.89Q81.07-10.39 81.75-12.06Q82.42-13.73 82.91-15.51Q83.40-17.29 83.67-19.14Q83.95-21.00 83.95-22.87L83.95-22.87Q83.95-23.81 83.86-24.57Q83.77-25.33 83.58-25.87Q83.40-26.41 83.12-26.71Q82.83-27.01 82.46-27.01L82.46-27.01Q82.07-27.01 81.78-26.54Q81.48-26.07 81.27-25.29Q81.05-24.51 80.91-23.50Q80.76-22.48 80.66-21.38Q80.57-20.27 80.51-19.17Q80.45-18.07 80.42-17.10Q80.39-16.13 80.38-15.39Q80.37-14.65 80.37-14.28L80.37-14.28Q80.35-13.50 80.34-12.89Q80.33-12.29 80.31-11.70Q80.29-11.11 80.28-10.45Q80.27-9.79 80.27-8.89ZM80.21 3.36L80.21 3.36Q80.21 4.59 80.21 5.65Q80.20 6.72 80.20 7.60L80.20 7.60Q80.20 9.41 80.21 11.19Q80.23 12.97 80.40 14.38Q80.57 15.80 80.91 16.67Q81.25 17.54 81.89 17.54L81.89 17.54Q82.48 17.54 82.85 17.01Q83.22 16.48 83.43 15.76Q83.63 15.04 83.71 14.29Q83.79 13.54 83.79 13.07L83.79 13.07Q83.79 11.88 83.56 10.57Q83.34 9.26 82.88 7.98Q82.42 6.70 81.76 5.51Q81.09 4.32 80.21 3.36Z M104.63 0.27L104.63 0.27Q105.31-0.41 106.02-1.12Q106.72-1.84 107.38-2.62Q108.05-3.40 108.62-4.25Q109.20-5.10 109.65-6.05L109.65-6.05Q109.75-6.27 109.92-6.38Q110.10-6.48 110.31-6.48L110.31-6.48Q110.64-6.48 110.85-6.25Q111.05-6.02 111.05-5.72L111.05-5.72Q111.05-5.57 111.00-5.43L111.00-5.43Q110.39-4.16 109.61-3.11Q108.83-2.05 107.97-1.10Q107.11-0.16 106.23 0.73Q105.35 1.62 104.55 2.52L104.55 2.52Q104.47 3.87 104.55 5.22Q104.63 6.58 104.63 8.11L104.63 8.11Q104.63 9.36 104.55 10.61Q104.47 11.86 104.30 13.00Q104.12 14.14 103.82 15.14Q103.52 16.13 103.05 16.87Q102.58 17.60 101.95 18.02Q101.33 18.44 100.49 18.44L100.49 18.44Q99.10 18.44 98.36 17.48Q97.62 16.52 97.62 14.80L97.62 14.80Q97.62 13.87 97.82 12.79Q98.03 11.72 98.40 10.58Q98.77 9.43 99.29 8.26Q99.80 7.09 100.41 5.98Q101.02 4.86 101.70 3.86Q102.38 2.85 103.09 2.03L103.09 2.03Q103.13 1.09 103.17 0.09Q103.22-0.92 103.28-1.78L103.28-1.78Q102.77-0.88 102.02-0.33Q101.27 0.21 100.37 0.21L100.37 0.21Q98.89 0.21 98.05-0.78Q97.21-1.78 97.21-3.52L97.21-3.52Q97.21-4.79 97.45-5.83Q97.70-6.88 97.98-7.63Q98.26-8.38 98.50-8.78Q98.73-9.18 98.73-9.16L98.73-9.16Q98.95-9.49 99.34-9.49L99.34-9.49Q99.67-9.49 99.87-9.27Q100.08-9.04 100.08-8.75L100.08-8.75Q100.08-8.54 99.96-8.36L99.96-8.36Q99.98-8.38 99.78-8.04Q99.57-7.70 99.33-7.05Q99.08-6.41 98.88-5.51Q98.67-4.61 98.67-3.54L98.67-3.54Q98.67-2.46 99.06-1.86Q99.45-1.25 100.33-1.25L100.33-1.25Q101.45-1.25 102.34-2.90Q103.24-4.55 103.87-7.70L103.87-7.70Q103.91-7.95 104.10-8.12Q104.30-8.28 104.57-8.28L104.57-8.28Q104.88-8.28 105.10-8.07Q105.31-7.85 105.31-7.54L105.31-7.54Q105.31-7.48 105.23-6.85Q105.16-6.21 105.05-5.16Q104.94-4.10 104.82-2.71Q104.71-1.31 104.63 0.27ZM103.07 4.41L103.07 4.41Q102.19 5.68 101.46 7.09Q100.72 8.50 100.20 9.88Q99.67 11.27 99.38 12.54Q99.08 13.81 99.08 14.80L99.08 14.80Q99.08 15.82 99.41 16.40Q99.75 16.97 100.47 16.97L100.47 16.97Q101.11 16.97 101.61 16.34Q102.11 15.70 102.45 14.53Q102.79 13.36 102.97 11.69Q103.14 10.02 103.14 7.95L103.14 7.95Q103.14 7.11 103.12 6.25Q103.09 5.39 103.07 4.41Z"/></g>
</svg>
</g></g><g filter="url(#tUk6sjh6M)"><g opacity="1" transform="rotate(0 86.5545 306.4905)">
<svg width="271.0696" height="120" x="86.5545" y="306.4905" version="1.1" preserveAspectRatio="none" viewBox="1.9531 -29.2969 109.10159999999999 48.300799999999995">
  <g transform="matrix(1 0 0 1 0 0)" class="companyName"><path id="id-D6z1nYkh7" d="M35.43-20.51L35.43-20.51Q35.37-20.23 35.18-20.08Q34.98-19.92 34.75-19.92L34.75-19.92Q34.39-19.92 34.18-20.15Q33.96-20.37 33.96-20.66L33.96-20.66Q33.96-20.96 34.02-21.24Q34.08-21.52 34.08-21.80L34.08-21.80Q34.08-23.22 33.20-24.36Q32.32-25.49 30.71-26.26Q29.10-27.03 26.80-27.44Q24.49-27.85 21.66-27.85L21.66-27.85Q19.49-27.85 17.29-27.57Q15.10-27.29 13.08-26.75Q11.05-26.21 9.30-25.40Q7.54-24.59 6.24-23.53Q4.94-22.46 4.20-21.16Q3.46-19.86 3.46-18.32L3.46-18.32Q3.46-17.13 3.97-16.22Q4.49-15.31 5.39-14.64Q6.29-13.96 7.51-13.49Q8.73-13.01 10.16-12.69Q11.58-12.36 13.13-12.16Q14.67-11.95 16.23-11.82L16.23-11.82L19.24-11.56Q21.48-11.37 23.26-11.15Q25.04-10.94 26.39-10.61L26.39-10.61Q28.63-10.04 29.71-8.98Q30.78-7.93 30.78-6.17L30.78-6.17Q30.78-4.47 29.84-3.18Q28.91-1.89 27.29-1.02Q25.66-0.14 23.50 0.31Q21.33 0.76 18.85 0.76L18.85 0.76Q16.15 0.76 14.11 0.40Q12.07 0.04 10.69-0.40Q9.32-0.84 8.59-1.21Q7.87-1.58 7.81-1.62L7.81-1.62Q7.46-1.82 7.46-2.25L7.46-2.25Q7.46-2.58 7.70-2.78Q7.93-2.99 8.20-2.99L8.20-2.99Q8.42-2.99 8.59-2.87L8.59-2.87Q8.61-2.87 9.27-2.53Q9.92-2.19 11.22-1.78Q12.52-1.37 14.43-1.04Q16.35-0.70 18.89-0.70L18.89-0.70Q21.41-0.70 23.34-1.11Q25.27-1.52 26.59-2.26Q27.91-2.99 28.58-3.97Q29.26-4.96 29.26-6.11L29.26-6.11Q29.26-6.80 29.01-7.29Q28.77-7.79 28.34-8.15Q27.91-8.52 27.31-8.77Q26.72-9.02 26.02-9.20L26.02-9.20Q25.27-9.39 24.42-9.53Q23.57-9.67 22.68-9.77Q21.78-9.86 20.87-9.94Q19.96-10.02 19.08-10.10L19.08-10.10L16.07-10.35Q12.52-10.64 9.87-11.26Q7.23-11.88 5.47-12.84Q3.71-13.81 2.83-15.16Q1.95-16.50 1.95-18.30L1.95-18.30Q1.95-20.14 2.78-21.67Q3.61-23.20 5.05-24.43Q6.48-25.66 8.41-26.57Q10.33-27.48 12.52-28.09Q14.71-28.69 17.05-28.99Q19.39-29.30 21.66-29.30L21.66-29.30Q24.49-29.30 26.59-28.96Q28.69-28.61 30.19-28.08Q31.68-27.54 32.64-26.86Q33.59-26.17 34.18-25.51L34.18-25.51Q35.57-23.89 35.57-21.82L35.57-21.82Q35.57-21.13 35.43-20.51Z M42.58-2.15L42.58-2.15Q42.09-2.15 41.72-2.23L41.72-2.23Q41.43-1.64 41.02-1.14Q40.61-0.64 40.07-0.27Q39.53 0.10 38.87 0.31Q38.20 0.53 37.42 0.53L37.42 0.53Q36.50 0.53 35.74 0.21Q34.98-0.12 34.41-0.69Q33.85-1.27 33.54-2.08Q33.22-2.89 33.22-3.87L33.22-3.87Q33.22-5.12 33.67-6.04Q34.12-6.97 34.71-7.59Q35.29-8.20 35.88-8.51Q36.46-8.81 36.76-8.81L36.76-8.81Q37.09-8.81 37.26-8.63Q37.42-8.46 37.42-8.16L37.42-8.16Q37.42-7.83 37.22-7.67Q37.01-7.50 36.70-7.34L36.70-7.34Q36.39-7.19 36.04-6.90Q35.68-6.62 35.38-6.19Q35.08-5.76 34.88-5.18Q34.69-4.59 34.69-3.87L34.69-3.87Q34.69-3.22 34.88-2.67Q35.08-2.11 35.45-1.71Q35.82-1.31 36.33-1.08Q36.84-0.86 37.46-0.86L37.46-0.86Q38.57-0.86 39.31-1.38Q40.04-1.89 40.43-2.70L40.43-2.70Q39.28-3.30 38.54-4.41Q37.79-5.53 37.79-6.91L37.79-6.91Q37.79-8.03 38.33-8.73Q38.87-9.43 39.75-9.43L39.75-9.43Q40.27-9.43 40.74-9.18Q41.21-8.93 41.57-8.38Q41.93-7.83 42.15-6.97Q42.36-6.11 42.36-4.92L42.36-4.92Q42.36-4.30 42.21-3.61L42.21-3.61Q42.32-3.59 42.44-3.59Q42.56-3.59 42.70-3.59L42.70-3.59Q43.36-3.59 43.89-3.75Q44.41-3.91 44.84-4.22Q45.27-4.53 45.62-5.02Q45.96-5.51 46.27-6.15L46.27-6.15Q46.33-6.27 46.52-6.38Q46.72-6.48 46.91-6.48L46.91-6.48Q47.17-6.48 47.39-6.28Q47.62-6.07 47.62-5.74L47.62-5.74Q47.62-5.59 47.54-5.40Q47.46-5.21 47.38-5.06L47.38-5.06Q47.05-4.47 46.61-3.94Q46.17-3.40 45.58-3.00Q44.98-2.60 44.24-2.36Q43.50-2.13 42.58-2.15ZM39.24-7.07L39.24-7.07Q39.24-6.70 39.34-6.29Q39.43-5.88 39.64-5.48Q39.84-5.08 40.15-4.72Q40.45-4.36 40.86-4.10L40.86-4.10Q40.92-4.51 40.92-4.90L40.92-4.90Q40.92-5.43 40.84-5.98Q40.76-6.52 40.62-6.98Q40.47-7.44 40.25-7.72Q40.04-8.01 39.75-8.01L39.75-8.01Q39.63-8.01 39.43-7.83Q39.24-7.66 39.24-7.07Z M58.98-5.41L58.98-5.41Q58.87-5.20 58.58-4.63Q58.30-4.06 57.82-3.35Q57.34-2.64 56.68-1.88Q56.02-1.11 55.16-0.48Q54.30 0.16 53.23 0.57Q52.17 0.98 50.92 0.98L50.92 0.98Q49.80 0.98 48.95 0.58Q48.09 0.18 47.48-0.56Q46.88-1.29 46.56-2.29Q46.25-3.28 46.25-4.49L46.25-4.49Q46.25-5.66 46.58-6.69Q46.91-7.71 47.49-8.48Q48.07-9.24 48.83-9.68Q49.59-10.12 50.45-10.12L50.45-10.12Q51.09-10.12 51.62-9.89Q52.15-9.67 52.51-9.30Q52.87-8.93 53.08-8.48Q53.28-8.03 53.28-7.58L53.28-7.58Q53.28-7.15 53.17-6.78Q53.07-6.41 52.90-6.12Q52.73-5.84 52.52-5.67Q52.30-5.51 52.09-5.51L52.09-5.51Q51.76-5.51 51.55-5.72Q51.35-5.94 51.35-6.25L51.35-6.25Q51.35-6.41 51.42-6.52Q51.48-6.64 51.57-6.77Q51.66-6.89 51.73-7.08Q51.80-7.27 51.80-7.56L51.80-7.56Q51.80-7.97 51.42-8.30Q51.04-8.63 50.45-8.63L50.45-8.63Q49.90-8.63 49.40-8.30Q48.91-7.97 48.54-7.41Q48.16-6.86 47.94-6.10Q47.71-5.35 47.71-4.51L47.71-4.51Q47.71-3.71 47.91-2.99Q48.11-2.27 48.50-1.71Q48.89-1.15 49.48-0.82Q50.08-0.49 50.90-0.49L50.90-0.49Q51.95-0.49 52.85-0.87Q53.75-1.25 54.49-1.84Q55.23-2.42 55.80-3.12Q56.37-3.81 56.77-4.42Q57.17-5.04 57.39-5.50Q57.62-5.96 57.66-6.07L57.66-6.07Q57.73-6.27 57.92-6.38Q58.11-6.48 58.32-6.48L58.32-6.48Q58.65-6.48 58.86-6.25Q59.06-6.02 59.06-5.72L59.06-5.72Q59.06-5.61 58.98-5.41Z M60.84-15.33L60.84-15.33Q60.84-14.59 60.32-14.07Q59.80-13.55 59.06-13.55L59.06-13.55Q58.32-13.55 57.80-14.07Q57.29-14.59 57.29-15.33L57.29-15.33Q57.29-15.70 57.42-16.03Q57.56-16.35 57.80-16.59Q58.05-16.84 58.37-16.97Q58.69-17.11 59.06-17.11L59.06-17.11Q59.43-17.11 59.76-16.97Q60.08-16.84 60.32-16.59Q60.57-16.35 60.70-16.03Q60.84-15.70 60.84-15.33ZM57.68-3.89L57.68-3.89Q57.68-6.70 58.03-9.49L58.03-9.49Q58.07-9.77 58.27-9.97Q58.48-10.18 58.81-10.18L58.81-10.18Q59.10-10.18 59.30-9.95Q59.49-9.73 59.49-9.43L59.49-9.43Q59.49-9.32 59.44-8.73Q59.39-8.14 59.33-7.33Q59.26-6.52 59.21-5.62Q59.16-4.71 59.16-3.95L59.16-3.95Q59.16-2.91 59.37-2.28Q59.57-1.64 59.89-1.29Q60.21-0.94 60.58-0.82Q60.94-0.70 61.27-0.70L61.27-0.70Q61.82-0.70 62.40-1.09Q62.99-1.48 63.60-2.19Q64.22-2.89 64.84-3.88Q65.47-4.86 66.07-6.07L66.07-6.07Q66.17-6.27 66.35-6.38Q66.52-6.48 66.74-6.48L66.74-6.48Q67.05-6.48 67.26-6.25Q67.46-6.02 67.46-5.74L67.46-5.74Q67.46-5.55 67.38-5.41L67.38-5.41Q67.15-4.96 66.80-4.32Q66.45-3.67 66.00-2.99Q65.55-2.30 65.01-1.63Q64.47-0.96 63.87-0.42Q63.26 0.12 62.60 0.45Q61.93 0.78 61.25 0.78L61.25 0.78Q60.37 0.78 59.71 0.41Q59.04 0.04 58.58-0.59Q58.13-1.21 57.90-2.06Q57.68-2.91 57.68-3.89ZM59.75-15.33L59.75-15.33Q59.75-15.61 59.54-15.81Q59.34-16.02 59.06-16.02L59.06-16.02Q58.79-16.02 58.59-15.81Q58.40-15.61 58.40-15.33L58.40-15.33Q58.40-15.06 58.59-14.86Q58.79-14.67 59.06-14.67L59.06-14.67Q59.34-14.67 59.54-14.86Q59.75-15.06 59.75-15.33Z M75.06-2.15L75.06-2.15Q74.57-2.15 74.20-2.23L74.20-2.23Q73.91-1.64 73.50-1.14Q73.09-0.64 72.55-0.27Q72.01 0.10 71.35 0.31Q70.68 0.53 69.90 0.53L69.90 0.53Q68.98 0.53 68.22 0.21Q67.46-0.12 66.89-0.69Q66.33-1.27 66.02-2.08Q65.70-2.89 65.70-3.87L65.70-3.87Q65.70-5.12 66.15-6.04Q66.60-6.97 67.19-7.59Q67.77-8.20 68.36-8.51Q68.95-8.81 69.24-8.81L69.24-8.81Q69.57-8.81 69.74-8.63Q69.90-8.46 69.90-8.16L69.90-8.16Q69.90-7.83 69.70-7.67Q69.49-7.50 69.18-7.34L69.18-7.34Q68.87-7.19 68.52-6.90Q68.16-6.62 67.86-6.19Q67.56-5.76 67.36-5.18Q67.17-4.59 67.17-3.87L67.17-3.87Q67.17-3.22 67.36-2.67Q67.56-2.11 67.93-1.71Q68.30-1.31 68.81-1.08Q69.32-0.86 69.94-0.86L69.94-0.86Q71.05-0.86 71.79-1.38Q72.52-1.89 72.91-2.70L72.91-2.70Q71.76-3.30 71.02-4.41Q70.27-5.53 70.27-6.91L70.27-6.91Q70.27-8.03 70.81-8.73Q71.35-9.43 72.23-9.43L72.23-9.43Q72.75-9.43 73.22-9.18Q73.69-8.93 74.05-8.38Q74.41-7.83 74.63-6.97Q74.84-6.11 74.84-4.92L74.84-4.92Q74.84-4.30 74.69-3.61L74.69-3.61Q74.80-3.59 74.92-3.59Q75.04-3.59 75.18-3.59L75.18-3.59Q75.84-3.59 76.37-3.75Q76.89-3.91 77.32-4.22Q77.75-4.53 78.10-5.02Q78.44-5.51 78.75-6.15L78.75-6.15Q78.81-6.27 79.00-6.38Q79.20-6.48 79.39-6.48L79.39-6.48Q79.65-6.48 79.87-6.28Q80.10-6.07 80.10-5.74L80.10-5.74Q80.10-5.59 80.02-5.40Q79.94-5.21 79.86-5.06L79.86-5.06Q79.53-4.47 79.09-3.94Q78.65-3.40 78.06-3.00Q77.46-2.60 76.72-2.36Q75.98-2.13 75.06-2.15ZM71.72-7.07L71.72-7.07Q71.72-6.70 71.82-6.29Q71.91-5.88 72.12-5.48Q72.32-5.08 72.63-4.72Q72.93-4.36 73.34-4.10L73.34-4.10Q73.40-4.51 73.40-4.90L73.40-4.90Q73.40-5.43 73.32-5.98Q73.24-6.52 73.10-6.98Q72.95-7.44 72.73-7.72Q72.52-8.01 72.23-8.01L72.23-8.01Q72.11-8.01 71.91-7.83Q71.72-7.66 71.72-7.07Z M98.69-5.41L98.69-5.41Q98.48-4.96 98.15-4.35Q97.83-3.73 97.42-3.07Q97.01-2.40 96.50-1.75Q96.00-1.09 95.40-0.58Q94.80-0.06 94.13 0.26Q93.46 0.59 92.70 0.59L92.70 0.59Q91.86 0.59 91.18 0.21Q90.51-0.18 89.98-0.85Q89.45-1.52 89.06-2.43Q88.67-3.34 88.38-4.38L88.38-4.38Q87.91-3.52 87.24-2.64Q86.56-1.76 85.67-0.92Q84.79-0.08 83.64 0.70Q82.50 1.48 81.09 2.13L81.09 2.13Q82.15 3.22 82.93 4.56Q83.71 5.90 84.23 7.34Q84.75 8.79 85.01 10.26Q85.27 11.74 85.27 13.09L85.27 13.09Q85.27 14.32 85.05 15.40Q84.82 16.48 84.38 17.29Q83.95 18.09 83.32 18.54Q82.70 19.00 81.89 19.00L81.89 19.00Q80.72 19.00 80.08 18.13Q79.43 17.27 79.13 15.73Q78.83 14.20 78.78 12.12Q78.73 10.04 78.73 7.60L78.73 7.60Q78.73 6.39 78.73 4.78Q78.73 3.16 78.74 1.32Q78.75-0.53 78.76-2.55Q78.77-4.57 78.79-6.60Q78.81-8.63 78.83-10.60Q78.85-12.56 78.89-14.32L78.89-14.32Q78.95-17.68 79.12-20.31Q79.30-22.95 79.69-24.77Q80.08-26.58 80.75-27.53Q81.43-28.48 82.46-28.48L82.46-28.48Q83.28-28.48 83.85-28.02Q84.41-27.56 84.77-26.79Q85.12-26.02 85.27-24.98Q85.43-23.95 85.43-22.81L85.43-22.81Q85.43-20.43 85.02-18.20Q84.61-15.98 83.91-13.89Q83.20-11.80 82.26-9.80Q81.31-7.81 80.23-5.88L80.23-5.88Q80.23-5.08 80.23-4.15Q80.23-3.22 80.23-2.29Q80.23-1.37 80.22-0.52Q80.21 0.33 80.21 0.96L80.21 0.96Q81.66 0.31 82.84-0.53Q84.02-1.37 84.95-2.29Q85.88-3.22 86.53-4.19Q87.19-5.16 87.58-6.04L87.58-6.04Q87.70-6.29 87.95-6.41L87.95-6.41Q87.62-8.28 87.52-10.13Q87.42-11.97 87.42-13.36L87.42-13.36Q87.42-15 87.53-16.76Q87.64-18.52 87.87-20.20Q88.11-21.88 88.47-23.38Q88.83-24.88 89.33-26.02Q89.82-27.15 90.47-27.81Q91.11-28.48 91.93-28.48L91.93-28.48Q92.58-28.48 93.10-28.17Q93.61-27.87 93.96-27.19Q94.32-26.50 94.51-25.41Q94.71-24.32 94.71-22.73L94.71-22.73Q94.71-20.78 94.30-18.70Q93.89-16.62 93.18-14.51Q92.48-12.40 91.52-10.30Q90.57-8.20 89.47-6.21L89.47-6.21Q89.96-3.73 90.78-2.31Q91.60-0.90 92.75-0.90L92.75-0.90Q93.54-0.90 94.26-1.51Q94.98-2.13 95.59-2.97Q96.19-3.81 96.65-4.68Q97.11-5.55 97.36-6.07L97.36-6.07Q97.46-6.27 97.64-6.38Q97.81-6.48 98.03-6.48L98.03-6.48Q98.36-6.48 98.56-6.25Q98.77-6.02 98.77-5.72L98.77-5.72Q98.77-5.61 98.69-5.41ZM88.91-13.26L88.91-13.26Q88.91-12.01 88.96-10.86Q89.02-9.71 89.12-8.65L89.12-8.65Q89.94-10.23 90.68-12.02Q91.43-13.81 91.99-15.63Q92.56-17.46 92.90-19.27Q93.24-21.07 93.24-22.71L93.24-22.71Q93.24-25.02 92.87-26.02Q92.50-27.01 91.88-27.01L91.88-27.01Q91.46-27.01 91.08-26.45Q90.70-25.88 90.37-24.90Q90.04-23.93 89.77-22.60Q89.49-21.27 89.31-19.75Q89.12-18.22 89.01-16.56Q88.91-14.90 88.91-13.26ZM80.27-8.89L80.27-8.89Q81.07-10.39 81.75-12.06Q82.42-13.73 82.91-15.51Q83.40-17.29 83.67-19.14Q83.95-21.00 83.95-22.87L83.95-22.87Q83.95-23.81 83.86-24.57Q83.77-25.33 83.58-25.87Q83.40-26.41 83.12-26.71Q82.83-27.01 82.46-27.01L82.46-27.01Q82.07-27.01 81.78-26.54Q81.48-26.07 81.27-25.29Q81.05-24.51 80.91-23.50Q80.76-22.48 80.66-21.38Q80.57-20.27 80.51-19.17Q80.45-18.07 80.42-17.10Q80.39-16.13 80.38-15.39Q80.37-14.65 80.37-14.28L80.37-14.28Q80.35-13.50 80.34-12.89Q80.33-12.29 80.31-11.70Q80.29-11.11 80.28-10.45Q80.27-9.79 80.27-8.89ZM80.21 3.36L80.21 3.36Q80.21 4.59 80.21 5.65Q80.20 6.72 80.20 7.60L80.20 7.60Q80.20 9.41 80.21 11.19Q80.23 12.97 80.40 14.38Q80.57 15.80 80.91 16.67Q81.25 17.54 81.89 17.54L81.89 17.54Q82.48 17.54 82.85 17.01Q83.22 16.48 83.43 15.76Q83.63 15.04 83.71 14.29Q83.79 13.54 83.79 13.07L83.79 13.07Q83.79 11.88 83.56 10.57Q83.34 9.26 82.88 7.98Q82.42 6.70 81.76 5.51Q81.09 4.32 80.21 3.36Z M104.63 0.27L104.63 0.27Q105.31-0.41 106.02-1.12Q106.72-1.84 107.38-2.62Q108.05-3.40 108.62-4.25Q109.20-5.10 109.65-6.05L109.65-6.05Q109.75-6.27 109.92-6.38Q110.10-6.48 110.31-6.48L110.31-6.48Q110.64-6.48 110.85-6.25Q111.05-6.02 111.05-5.72L111.05-5.72Q111.05-5.57 111.00-5.43L111.00-5.43Q110.39-4.16 109.61-3.11Q108.83-2.05 107.97-1.10Q107.11-0.16 106.23 0.73Q105.35 1.62 104.55 2.52L104.55 2.52Q104.47 3.87 104.55 5.22Q104.63 6.58 104.63 8.11L104.63 8.11Q104.63 9.36 104.55 10.61Q104.47 11.86 104.30 13.00Q104.12 14.14 103.82 15.14Q103.52 16.13 103.05 16.87Q102.58 17.60 101.95 18.02Q101.33 18.44 100.49 18.44L100.49 18.44Q99.10 18.44 98.36 17.48Q97.62 16.52 97.62 14.80L97.62 14.80Q97.62 13.87 97.82 12.79Q98.03 11.72 98.40 10.58Q98.77 9.43 99.29 8.26Q99.80 7.09 100.41 5.98Q101.02 4.86 101.70 3.86Q102.38 2.85 103.09 2.03L103.09 2.03Q103.13 1.09 103.17 0.09Q103.22-0.92 103.28-1.78L103.28-1.78Q102.77-0.88 102.02-0.33Q101.27 0.21 100.37 0.21L100.37 0.21Q98.89 0.21 98.05-0.78Q97.21-1.78 97.21-3.52L97.21-3.52Q97.21-4.79 97.45-5.83Q97.70-6.88 97.98-7.63Q98.26-8.38 98.50-8.78Q98.73-9.18 98.73-9.16L98.73-9.16Q98.95-9.49 99.34-9.49L99.34-9.49Q99.67-9.49 99.87-9.27Q100.08-9.04 100.08-8.75L100.08-8.75Q100.08-8.54 99.96-8.36L99.96-8.36Q99.98-8.38 99.78-8.04Q99.57-7.70 99.33-7.05Q99.08-6.41 98.88-5.51Q98.67-4.61 98.67-3.54L98.67-3.54Q98.67-2.46 99.06-1.86Q99.45-1.25 100.33-1.25L100.33-1.25Q101.45-1.25 102.34-2.90Q103.24-4.55 103.87-7.70L103.87-7.70Q103.91-7.95 104.10-8.12Q104.30-8.28 104.57-8.28L104.57-8.28Q104.88-8.28 105.10-8.07Q105.31-7.85 105.31-7.54L105.31-7.54Q105.31-7.48 105.23-6.85Q105.16-6.21 105.05-5.16Q104.94-4.10 104.82-2.71Q104.71-1.31 104.63 0.27ZM103.07 4.41L103.07 4.41Q102.19 5.68 101.46 7.09Q100.72 8.50 100.20 9.88Q99.67 11.27 99.38 12.54Q99.08 13.81 99.08 14.80L99.08 14.80Q99.08 15.82 99.41 16.40Q99.75 16.97 100.47 16.97L100.47 16.97Q101.11 16.97 101.61 16.34Q102.11 15.70 102.45 14.53Q102.79 13.36 102.97 11.69Q103.14 10.02 103.14 7.95L103.14 7.95Q103.14 7.11 103.12 6.25Q103.09 5.39 103.07 4.41Z"/></g>
</svg>
</g></g><g filter="url(#a2O-D20rgJ)"><g opacity="1" transform="rotate(0 156.4702 166.4905)">
<svg width="131.2382" height="120" x="156.4702" y="166.4905" version="1.1" preserveAspectRatio="none" viewBox="5 8.852999687194824 90 82.29301452636719">
  <g transform="matrix(1 0 0 1 0 0)" class="icon3"><path d="M68.835,12.853C81.057,12.853,91,22.796,91,35.019c0,26.395-32.808,46.858-41.003,51.557C41.792,81.881,9,61.46,9,35.019  c0-12.222,9.944-22.166,22.166-22.166c6.047,0,11.699,2.396,15.916,6.747l2.828,2.918l0.074-0.074l0.091,0.092l2.844-2.934  C57.135,15.25,62.787,12.853,68.835,12.853 M68.835,8.853c-7.375,0-14.033,3.056-18.79,7.965l-0.046-0.046l-0.045,0.045  c-4.757-4.908-11.414-7.963-18.788-7.963C16.715,8.853,5,20.567,5,35.019C5,67.87,49.999,91.146,49.999,91.146S95,67.87,95,35.019  C95,20.567,83.285,8.853,68.835,8.853L68.835,8.853z"></path><path fill-rule="evenodd" clip-rule="evenodd" stroke-width="4" stroke-miterlimit="10" d="  M8.204,51.309"></path></g>
</svg>
</g></g><g filter="url(#i0NrGVRvc)"><g opacity="1" transform="rotate(0 156.4702 166.4905)">
<svg width="131.2382" height="120" x="156.4702" y="166.4905" version="1.1" preserveAspectRatio="none" viewBox="5 8.852999687194824 90 82.29301452636719">
  <g transform="matrix(1 0 0 1 0 0)" class="companyName"><path d="M68.835,12.853C81.057,12.853,91,22.796,91,35.019c0,26.395-32.808,46.858-41.003,51.557C41.792,81.881,9,61.46,9,35.019  c0-12.222,9.944-22.166,22.166-22.166c6.047,0,11.699,2.396,15.916,6.747l2.828,2.918l0.074-0.074l0.091,0.092l2.844-2.934  C57.135,15.25,62.787,12.853,68.835,12.853 M68.835,8.853c-7.375,0-14.033,3.056-18.79,7.965l-0.046-0.046l-0.045,0.045  c-4.757-4.908-11.414-7.963-18.788-7.963C16.715,8.853,5,20.567,5,35.019C5,67.87,49.999,91.146,49.999,91.146S95,67.87,95,35.019  C95,20.567,83.285,8.853,68.835,8.853L68.835,8.853z"></path><path fill-rule="evenodd" clip-rule="evenodd" stroke-width="4" stroke-miterlimit="10" d="  M8.204,51.309"></path></g>
</svg>
</g></g></svg></svg>